<?xml version="1.0" standalone="no"?><!DOCTYPE svg PUBLIC "-//W3C//DTD SVG 1.1//EN" "http://www.w3.org/Graphics/SVG/1.1/DTD/svg11.dtd"><svg t="1504491664673" class="icon" style="" viewBox="0 0 1024 1024" version="1.1" xmlns="http://www.w3.org/2000/svg" p-id="1833" xmlns:xlink="http://www.w3.org/1999/xlink" width="128" height="128"><defs><style type="text/css"></style></defs><path d="M520.74671 401.397996c53.132104 0 102.777805 14.919804 144.982022 40.820708l0-73.995271-38.318724 0-12.276604-16.391319L825.192583 64.12139l59.635215 0L676.389536 342.464769l2.217505 0 12.870122 0 0 12.879332 0 104.738459c9.003048 7.024997 17.571191 14.600533 25.64303 22.672372 50.257637 50.258661 81.356936 119.693056 81.356936 196.365296 0 76.673264-31.099299 146.107659-81.356936 196.367343-50.266847 50.257637-119.693056 81.355913-196.373483 81.355913-76.682473 0-146.108682-31.098275-196.375529-81.355913-50.257637-50.258661-81.347726-119.694079-81.347726-196.367343 0-76.67224 31.090089-146.106636 81.347726-196.365296 6.458085-6.457062 13.234419-12.595876 20.303418-18.396999l0-82.953294 8.860808 11.850909 16.888645 0 0 52.315506C413.75493 417.612283 465.352075 401.397996 520.74671 401.397996L520.74671 401.397996zM605.144912 338.491271l200.322421-274.369881-35.836183 0L586.996576 314.257334 605.144912 338.491271 605.144912 338.491271zM577.009108 300.917514 749.904876 64.12139l-35.249829 0L560.06725 278.298354 577.009108 300.917514 577.009108 300.917514zM550.061362 264.940115 694.999382 64.12139l-38.443567 0L528.117584 235.633648 550.061362 264.940115 550.061362 264.940115zM139.243833 64.12139l227.181139 303.375495 228.271984 0L367.515816 64.12139 139.243833 64.12139 139.243833 64.12139zM680.708911 519.157004c-40.934295-40.944528-97.499591-66.277496-159.962202-66.277496-62.463634 0-119.027907 25.332968-159.963225 66.277496-40.935318 40.944528-66.268286 97.499591-66.268286 159.962202s25.332968 119.019721 66.268286 159.963225c40.935318 40.944528 97.499591 66.2601 159.963225 66.2601 62.46261 0 119.027907-25.315572 159.962202-66.2601 40.936341-40.944528 66.269309-97.500615 66.269309-159.963225S721.645253 560.101531 680.708911 519.157004z" p-id="1834"></path></svg>